<svg width="900" height="740" viewBox="0 0 900 740" fill="none" xmlns="http://www.w3.org/2000/svg">
  <rect width="900" height="740" rx="40" fill="url(#surface)"/>
  <rect x="92" y="108" width="716" height="524" rx="32" fill="#FDFEFF" stroke="#DCE6F1" stroke-width="2"/>
  <rect x="136" y="150" width="318" height="286" rx="24" fill="url(#panel)"/>
  <rect x="492" y="150" width="268" height="58" rx="20" fill="#0B2545"/>
  <rect x="492" y="232" width="208" height="18" rx="9" fill="#D2DDE8"/>
  <rect x="492" y="266" width="240" height="18" rx="9" fill="#D2DDE8"/>
  <rect x="492" y="300" width="182" height="18" rx="9" fill="#D2DDE8"/>
  <rect x="492" y="364" width="268" height="112" rx="28" fill="#F5F8FC"/>
  <circle cx="560" cy="420" r="32" fill="#D4AF37" fill-opacity="0.22"/>
  <path d="M560 396L569 414L588 416L574 429L578 448L560 438L542 448L546 429L532 416L551 414L560 396Z" fill="#D4AF37"/>
  <rect x="492" y="506" width="168" height="62" rx="18" fill="url(#cta)"/>
  <circle cx="248" cy="272" r="74" fill="#0B2545" fill-opacity="0.1"/>
  <circle cx="248" cy="252" r="44" fill="#E7C562"/>
  <path d="M174 390C174 345 208 308 252 308H260C304 308 338 345 338 390V436H174V390Z" fill="#123660"/>
  <circle cx="352" cy="328" r="22" fill="#D4AF37" fill-opacity="0.26"/>
  <path d="M337 328H367" stroke="#9A7A18" stroke-width="6" stroke-linecap="round"/>
  <path d="M352 313V343" stroke="#9A7A18" stroke-width="6" stroke-linecap="round"/>
  <defs>
    <linearGradient id="surface" x1="450" y1="0" x2="450" y2="740" gradientUnits="userSpaceOnUse">
      <stop stop-color="#FDFEFF"/>
      <stop offset="1" stop-color="#EEF4FA"/>
    </linearGradient>
    <linearGradient id="panel" x1="295" y1="150" x2="295" y2="436" gradientUnits="userSpaceOnUse">
      <stop stop-color="#FFF9E8"/>
      <stop offset="1" stop-color="#F4F8FD"/>
    </linearGradient>
    <linearGradient id="cta" x1="492" y1="506" x2="660" y2="568" gradientUnits="userSpaceOnUse">
      <stop stop-color="#0B2545"/>
      <stop offset="1" stop-color="#224E7D"/>
    </linearGradient>
  </defs>
</svg>
